<?xml version="1.0" encoding="iso-8859-1"?>
<!-- Generator: Adobe Illustrator 19.0.0, SVG Export Plug-In . SVG Version: 6.00 Build 0)  -->
<svg version="1.1" id="Capa_1" xmlns="http://www.w3.org/2000/svg" xmlns:xlink="http://www.w3.org/1999/xlink" x="0px" y="0px"
	 viewBox="0 0 511.997 511.997" style="enable-background:new 0 0 511.997 511.997;" xml:space="preserve">
<linearGradient id="SVGID_1_" gradientUnits="userSpaceOnUse" x1="0" y1="257.9999" x2="511.9973" y2="257.9999" gradientTransform="matrix(1 0 0 -1 0 513.9985)">
	<stop  offset="0" style="stop-color:#00F2FE"/>
	<stop  offset="0.021" style="stop-color:#03EFFE"/>
	<stop  offset="0.293" style="stop-color:#24D2FE"/>
	<stop  offset="0.554" style="stop-color:#3CBDFE"/>
	<stop  offset="0.796" style="stop-color:#4AB0FE"/>
	<stop  offset="1" style="stop-color:#4FACFE"/>
</linearGradient>
<path style="fill:url(#SVGID_1_);" d="M420.521,405.662c1.2,6.285-0.704,12.817-5.093,17.473l-51.98,55.13
	c-7.577,8.037-7.205,20.694,0.831,28.272c3.864,3.643,8.795,5.448,13.717,5.448c5.315,0,10.621-2.107,14.556-6.28l51.98-55.131
	c13.168-13.966,18.88-33.561,15.28-52.415l-4.816-25.218l19.98-19.98c7.81-7.811,7.81-20.474,0-28.284
	c-7.811-7.811-20.475-7.811-28.285,0l-0.766,0.766l-6.964-36.466l26.015-26.015c7.81-7.811,7.81-20.474,0-28.284
	c-7.811-7.811-20.475-7.811-28.285,0l-6.801,6.801l-9.576-50.142l42.585-43.463c12.216-12.256,27.709-37.359,37.706-61.105
	c15.008-35.646,15.188-61.15,0.536-75.802c-14.585-14.586-40.173-14.609-76.054-0.065c-24.301,9.85-49.768,25.224-61.93,37.386
	c-0.063,0.062-0.124,0.125-0.185,0.187l-42.11,43.23l-50.368-9.617l6.803-6.803c7.81-7.811,7.81-20.474,0-28.284
	c-7.811-7.811-20.475-7.811-28.285,0l-26.018,26.018l-36.468-6.963l0.771-0.771c7.81-7.811,7.81-20.474,0-28.284
	c-7.811-7.811-20.475-7.811-28.285,0l-19.986,19.986l-25.204-4.812c-18.855-3.6-38.448,2.112-52.414,15.28L6.279,119.434
	c-8.036,7.578-8.408,20.235-0.831,28.272c3.935,4.173,9.239,6.28,14.556,6.28c4.921,0,9.853-1.806,13.717-5.448l10.309-9.72
	l149.897,74.409l-86.869,87.474l-37.163-1.663c-0.324-0.015-0.642-0.021-0.966-0.02c-23.853,0-46.962,9.902-63.412,27.176
	c-4.44,4.663-6.364,11.179-5.169,17.506s5.364,11.692,11.2,14.413l96.73,45.103l48.831,97.711
	c2.913,5.829,8.482,9.873,14.927,10.838c0.99,0.148,1.979,0.221,2.965,0.221c5.431,0,10.68-2.214,14.483-6.209l1.359-1.428
	c15.577-16.356,24.156-37.802,24.156-60.389v-46.751l85.676-86.145l39.894,85.387c4.677,10.008,16.582,14.33,26.586,9.654
	c10.007-4.675,14.33-16.578,9.654-26.585l-52.01-111.32c-2.766-5.918-8.246-10.113-14.682-11.236
	c-6.429-1.123-13.012,0.967-17.619,5.599l-111.679,112.29c-3.728,3.748-5.819,8.818-5.819,14.104v55.003
	c0,1.034-0.033,2.065-0.099,3.089l-33.96-67.954c-2.02-4.04-5.346-7.277-9.438-9.186l-65.986-30.768
	c1.018-0.074,2.039-0.115,3.064-0.123l45.534,2.038c5.66,0.263,11.112-1.886,15.086-5.887l112.345-113.128
	c0.805-0.776,1.55-1.627,2.227-2.548c0.034-0.046,0.068-0.093,0.102-0.139c0.012-0.017,0.024-0.034,0.037-0.051
	c1.443-2.006,2.469-4.217,3.079-6.517c0.717-2.682,0.85-5.429,0.454-8.08c-0.002-0.015-0.004-0.03-0.007-0.045
	c-0.008-0.051-0.016-0.102-0.023-0.153c-0.454-2.874-1.535-5.667-3.243-8.159c-1.299-1.903-2.94-3.599-4.888-4.987
	c-0.033-0.023-0.065-0.047-0.098-0.07c-0.005-0.003-0.01-0.007-0.015-0.01c-0.965-0.681-1.976-1.266-3.021-1.755L75.056,109.563
	L88.85,96.557c4.655-4.39,11.186-6.292,17.471-5.094l214.85,41.022c7.054,2.36,15.15,0.674,20.688-5.01l49.664-50.983
	c6.525-6.478,23.469-17.563,43.369-26.313c20.147-8.858,32.125-10.406,37.148-10.195c0.125,4.974-1.604,16.813-10.65,36.614
	c-8.955,19.601-20.287,36.504-26.854,43.07c-0.048,0.048-0.096,0.096-0.144,0.145l-48.345,49.342
	c-5.509,4.494-8.441,11.79-7.015,19.263L420.521,405.662"/>
<g>
</g>
<g>
</g>
<g>
</g>
<g>
</g>
<g>
</g>
<g>
</g>
<g>
</g>
<g>
</g>
<g>
</g>
<g>
</g>
<g>
</g>
<g>
</g>
<g>
</g>
<g>
</g>
<g>
</g>
</svg>
